<svg width="40" height="40" viewBox="0 0 40 40" fill="none" xmlns="http://www.w3.org/2000/svg">
<g id="basil:add-outline">
<path id="Vector" d="M11.6783 20C11.6783 19.6685 11.81 19.3505 12.0445 19.1161C12.2789 18.8817 12.5968 18.75 12.9283 18.75H18.75V12.9283C18.75 12.5968 18.8817 12.2789 19.1161 12.0444C19.3505 11.81 19.6685 11.6783 20 11.6783C20.3315 11.6783 20.6495 11.81 20.8839 12.0444C21.1183 12.2789 21.25 12.5968 21.25 12.9283V18.75H27.0717C27.4032 18.75 27.7211 18.8817 27.9556 19.1161C28.19 19.3505 28.3217 19.6685 28.3217 20C28.3217 20.3315 28.19 20.6495 27.9556 20.8839C27.7211 21.1183 27.4032 21.25 27.0717 21.25H21.25V27.0717C21.25 27.4032 21.1183 27.7211 20.8839 27.9556C20.6495 28.19 20.3315 28.3217 20 28.3217C19.6685 28.3217 19.3505 28.19 19.1161 27.9556C18.8817 27.7211 18.75 27.4032 18.75 27.0717V21.25H12.9283C12.5968 21.25 12.2789 21.1183 12.0445 20.8839C11.81 20.6495 11.6783 20.3315 11.6783 20Z" fill="white"/>
<path id="Vector_2" fill-rule="evenodd" clip-rule="evenodd" d="M12.195 6.28167C17.3824 5.7066 22.6176 5.7066 27.805 6.28167C30.85 6.62167 33.3083 9.02 33.665 12.0817C34.2817 17.3433 34.2817 22.6583 33.665 27.92C33.3067 30.9817 30.8483 33.3783 27.805 33.72C22.6176 34.2951 17.3824 34.2951 12.195 33.72C9.15 33.3783 6.69167 30.9817 6.335 27.92C5.71963 22.6585 5.71963 17.3432 6.335 12.0817C6.69167 9.02 9.15167 6.62167 12.195 6.28167ZM27.5283 8.765C22.5248 8.21039 17.4752 8.21039 12.4717 8.765C11.5454 8.86776 10.6808 9.27979 10.0176 9.93453C9.35443 10.5893 8.93132 11.4485 8.81667 12.3733C8.22392 17.4416 8.22392 22.5617 8.81667 27.63C8.93167 28.5546 9.35493 29.4134 10.0181 30.0678C10.6813 30.7222 11.5457 31.134 12.4717 31.2367C17.4333 31.79 22.5667 31.79 27.5283 31.2367C28.454 31.1336 29.318 30.7217 29.9809 30.0673C30.6437 29.4129 31.0667 28.5543 31.1817 27.63C31.7744 22.5617 31.7744 17.4416 31.1817 12.3733C31.0664 11.4493 30.6432 10.5911 29.9804 9.93704C29.3176 9.283 28.4538 8.87129 27.5283 8.76833" fill="white"/>
</g>
</svg>
