<svg width="40" height="40" viewBox="0 0 40 40" fill="none" xmlns="http://www.w3.org/2000/svg">
<g id="material-symbols:explore">
<path id="Vector" d="M10.8333 29.1667L23.3333 23.3333L29.1666 10.8333L16.6666 16.6667L10.8333 29.1667ZM20 21.6667C19.5278 21.6667 19.1322 21.5067 18.8133 21.1867C18.4944 20.8667 18.3344 20.4711 18.3333 20C18.3333 19.5278 18.4933 19.1322 18.8133 18.8133C19.1333 18.4945 19.5289 18.3345 20 18.3333C20.4722 18.3333 20.8683 18.4933 21.1883 18.8133C21.5083 19.1333 21.6678 19.5289 21.6666 20C21.6666 20.4722 21.5066 20.8683 21.1866 21.1883C20.8666 21.5083 20.4711 21.6678 20 21.6667ZM20 36.6667C17.6944 36.6667 15.5278 36.2289 13.5 35.3533C11.4722 34.4778 9.70831 33.2906 8.20831 31.7917C6.70831 30.2917 5.52109 28.5278 4.64665 26.5C3.7722 24.4722 3.33442 22.3056 3.33331 20C3.33331 17.6945 3.77109 15.5278 4.64665 13.5C5.5222 11.4722 6.70942 9.70834 8.20831 8.20834C9.70831 6.70834 11.4722 5.52112 13.5 4.64668C15.5278 3.77223 17.6944 3.33445 20 3.33334C22.3055 3.33334 24.4722 3.77112 26.5 4.64668C28.5278 5.52223 30.2916 6.70945 31.7916 8.20834C33.2916 9.70834 34.4794 11.4722 35.355 13.5C36.2305 15.5278 36.6678 17.6945 36.6666 20C36.6666 22.3056 36.2289 24.4722 35.3533 26.5C34.4778 28.5278 33.2905 30.2917 31.7916 31.7917C30.2916 33.2917 28.5278 34.4795 26.5 35.355C24.4722 36.2306 22.3055 36.6678 20 36.6667Z" fill="white"/>
</g>
</svg>
