<svg width="32" height="32" viewBox="0 0 32 32" fill="none" xmlns="http://www.w3.org/2000/svg">
<g id="la:portrait">
<path id="Vector" d="M7 5V27H25V5H7ZM9 7H23V25H9V7ZM16 10C13.8 10 12 11.8 12 14C12 15.113 12.477 16.117 13.219 16.844C12.5383 17.3033 11.9803 17.9221 11.5935 18.6465C11.2068 19.3709 11.003 20.1788 11 21H13C13 19.332 14.332 18 16 18C17.668 18 19 19.332 19 21H21C20.997 20.1788 20.7932 19.3709 20.4065 18.6465C20.0197 17.9221 19.4617 17.3033 18.781 16.844C19.523 16.117 20 15.114 20 14C20 11.8 18.2 10 16 10ZM16 12C17.117 12 18 12.883 18 14C18 15.117 17.117 16 16 16C14.883 16 14 15.117 14 14C14 12.883 14.883 12 16 12Z" fill="white"/>
</g>
</svg>
