<svg width="24" height="23" viewBox="0 0 24 23" fill="none" xmlns="http://www.w3.org/2000/svg">
<g id="mdi:grid">
<path id="Vector" d="M10 3.83334V7.66667H14V3.83334H10ZM16 3.83334V7.66667H20V3.83334H16ZM16 9.58334V13.4167H20V9.58334H16ZM16 15.3333V19.1667H20V15.3333H16ZM14 19.1667V15.3333H10V19.1667H14ZM8 19.1667V15.3333H4V19.1667H8ZM8 13.4167V9.58334H4V13.4167H8ZM8 7.66667V3.83334H4V7.66667H8ZM10 13.4167H14V9.58334H10V13.4167ZM4 1.91667H20C20.5304 1.91667 21.0391 2.11861 21.4142 2.47805C21.7893 2.8375 22 3.32501 22 3.83334V19.1667C22 19.675 21.7893 20.1625 21.4142 20.522C21.0391 20.8814 20.5304 21.0833 20 21.0833H4C2.92 21.0833 2 20.2208 2 19.1667V3.83334C2 3.32501 2.21071 2.8375 2.58579 2.47805C2.96086 2.11861 3.46957 1.91667 4 1.91667Z" fill="white"/>
</g>
</svg>
