<svg width="40" height="40" viewBox="0 0 40 40" fill="none" xmlns="http://www.w3.org/2000/svg">
<g id="mingcute:messenger-fill">
<g id="Group">
<path id="Vector" fill-rule="evenodd" clip-rule="evenodd" d="M20 3.33333C29.205 3.33333 36.6667 10.795 36.6667 20C36.6667 29.205 29.205 36.6667 20 36.6667C17.1633 36.6708 14.3728 35.9478 11.895 34.5667L11.3867 34.27L6.33333 35.7567C6.05833 35.8377 5.7672 35.8472 5.48752 35.7841C5.20784 35.7211 4.9489 35.5877 4.73522 35.3966C4.52155 35.2055 4.36023 34.9629 4.26657 34.692C4.1729 34.421 4.14998 34.1306 4.19999 33.8483L4.24333 33.6667L5.72999 28.6133C4.15826 26.0155 3.32929 23.0363 3.33333 20C3.33333 10.795 10.795 3.33333 20 3.33333ZM16.3217 16.3217L11.3217 21.3217C11.1625 21.4754 11.0355 21.6593 10.9482 21.8627C10.8608 22.066 10.8148 22.2847 10.8129 22.506C10.811 22.7273 10.8532 22.9468 10.937 23.1516C11.0208 23.3564 11.1445 23.5425 11.301 23.699C11.4575 23.8555 11.6436 23.9792 11.8484 24.063C12.0532 24.1468 12.2727 24.189 12.494 24.1871C12.7153 24.1852 12.934 24.1392 13.1373 24.0518C13.3407 23.9645 13.5246 23.8375 13.6783 23.6783L17.5 19.8567L21.3217 23.6783C21.6342 23.9908 22.0581 24.1663 22.5 24.1663C22.9419 24.1663 23.3658 23.9908 23.6783 23.6783L28.6783 18.6783C28.9819 18.364 29.1499 17.943 29.1461 17.506C29.1423 17.069 28.967 16.651 28.658 16.342C28.349 16.033 27.931 15.8577 27.494 15.8539C27.057 15.8501 26.636 16.0181 26.3217 16.3217L22.5 20.1433L18.6783 16.3217C18.3658 16.0092 17.9419 15.8337 17.5 15.8337C17.0581 15.8337 16.6342 16.0092 16.3217 16.3217Z" fill="white"/>
</g>
</g>
</svg>
