<svg width="50" height="50" viewBox="0 0 50 50" fill="none" xmlns="http://www.w3.org/2000/svg">
<g id="mi:settings">
<g id="Group">
<path id="Vector" d="M25 8.33332C24.4475 8.33332 23.9175 8.55282 23.5268 8.94352C23.1361 9.33422 22.9167 9.86412 22.9167 10.4167C22.9167 13.9417 18.6542 15.7083 16.1604 13.2146C15.9682 13.0156 15.7383 12.8569 15.4842 12.7477C15.23 12.6385 14.9566 12.581 14.68 12.5786C14.4034 12.5762 14.129 12.6289 13.873 12.7337C13.617 12.8384 13.3844 12.9931 13.1887 13.1887C12.9931 13.3844 12.8384 13.617 12.7337 13.873C12.6289 14.129 12.5762 14.4034 12.5786 14.68C12.581 14.9566 12.6385 15.23 12.7477 15.4842C12.8569 15.7383 13.0156 15.9682 13.2146 16.1604C15.7083 18.6542 13.9437 22.9167 10.4167 22.9167C9.86412 22.9167 9.33422 23.1361 8.94352 23.5268C8.55282 23.9175 8.33332 24.4475 8.33332 25C8.33332 25.5525 8.55282 26.0824 8.94352 26.4731C9.33422 26.8638 9.86412 27.0833 10.4167 27.0833C13.9417 27.0833 15.7083 31.3458 13.2146 33.8396C12.8351 34.2325 12.6251 34.7587 12.6298 35.305C12.6346 35.8512 12.8537 36.3738 13.2399 36.76C13.6262 37.1463 14.1487 37.3654 14.695 37.3701C15.2412 37.3749 15.7675 37.1649 16.1604 36.7854C18.6542 34.2917 22.9167 36.0562 22.9167 39.5833C22.9167 40.1359 23.1361 40.6658 23.5268 41.0565C23.9175 41.4472 24.4475 41.6667 25 41.6667C25.5525 41.6667 26.0824 41.4472 26.4731 41.0565C26.8638 40.6658 27.0833 40.1359 27.0833 39.5833C27.0833 36.0583 31.3458 34.2917 33.8396 36.7854C34.0318 36.9844 34.2616 37.1431 34.5158 37.2523C34.77 37.3615 35.0434 37.4189 35.32 37.4213C35.5966 37.4237 35.8709 37.371 36.127 37.2663C36.383 37.1615 36.6156 37.0068 36.8112 36.8112C37.0068 36.6156 37.1615 36.383 37.2663 36.127C37.371 35.8709 37.4237 35.5966 37.4213 35.32C37.4189 35.0434 37.3615 34.77 37.2523 34.5158C37.1431 34.2616 36.9844 34.0318 36.7854 33.8396C34.2917 31.3458 36.0562 27.0833 39.5833 27.0833C40.1359 27.0833 40.6658 26.8638 41.0565 26.4731C41.4472 26.0824 41.6667 25.5525 41.6667 25C41.6667 24.4475 41.4472 23.9175 41.0565 23.5268C40.6658 23.1361 40.1359 22.9167 39.5833 22.9167C36.0583 22.9167 34.2917 18.6542 36.7854 16.1604C37.1649 15.7675 37.3749 15.2412 37.3701 14.695C37.3654 14.1487 37.1463 13.6262 36.76 13.2399C36.3738 12.8537 35.8512 12.6346 35.305 12.6298C34.7587 12.6251 34.2325 12.8351 33.8396 13.2146C31.3458 15.7083 27.0833 13.9437 27.0833 10.4167C27.0833 9.86412 26.8638 9.33422 26.4731 8.94352C26.0824 8.55282 25.5525 8.33332 25 8.33332ZM18.7667 9.95207C18.8819 8.37764 19.5886 6.90512 20.7449 5.83036C21.9012 4.75559 23.4213 4.1582 25 4.1582C26.5786 4.1582 28.0988 4.75559 29.2551 5.83036C30.4114 6.90512 31.1181 8.37764 31.2333 9.95207C32.4288 8.92537 33.9679 8.38813 35.5426 8.44792C37.1173 8.50771 38.6112 9.16013 39.7254 10.2745C40.8395 11.3889 41.4916 12.8831 41.551 14.4577C41.6104 16.0324 41.0728 17.5715 40.0458 18.7667C41.6203 18.8816 43.0929 19.5881 44.1679 20.7442C45.2428 21.9003 45.8405 23.4204 45.8407 24.999C45.841 26.5777 45.2439 28.0979 44.1693 29.2544C43.0947 30.4109 41.6223 31.1178 40.0479 31.2333C41.0746 32.4288 41.6118 33.9679 41.5521 35.5426C41.4923 37.1173 40.8398 38.6112 39.7254 39.7254C38.611 40.8395 37.1169 41.4916 35.5422 41.551C33.9675 41.6104 32.4285 41.0728 31.2333 40.0458C31.1181 41.6203 30.4114 43.0928 29.2551 44.1675C28.0988 45.2423 26.5786 45.8397 25 45.8397C23.4213 45.8397 21.9012 45.2423 20.7449 44.1675C19.5886 43.0928 18.8819 41.6203 18.7667 40.0458C17.5715 41.0728 16.0324 41.6104 14.4577 41.551C12.8831 41.4916 11.3889 40.8395 10.2745 39.7254C9.16013 38.6112 8.50771 37.1173 8.44792 35.5426C8.38813 33.9679 8.92537 32.4288 9.95207 31.2333C8.37764 31.1181 6.90512 30.4114 5.83036 29.2551C4.75559 28.0988 4.1582 26.5786 4.1582 25C4.1582 23.4213 4.75559 21.9012 5.83036 20.7449C6.90512 19.5886 8.37764 18.8819 9.95207 18.7667C8.92224 17.5717 8.38238 16.0315 8.44081 14.455C8.49924 12.8786 9.15163 11.3826 10.2671 10.2671C11.3826 9.15163 12.8786 8.49924 14.455 8.44081C16.0315 8.38238 17.5717 8.92224 18.7667 9.95207Z" fill="white"/>
<path id="Vector_2" d="M25 20.8333C23.8949 20.8333 22.8351 21.2723 22.0537 22.0537C21.2723 22.8351 20.8333 23.8949 20.8333 25C20.8333 26.1051 21.2723 27.1649 22.0537 27.9463C22.8351 28.7277 23.8949 29.1667 25 29.1667C26.105 29.1667 27.1649 28.7277 27.9463 27.9463C28.7277 27.1649 29.1666 26.1051 29.1666 25C29.1666 23.8949 28.7277 22.8351 27.9463 22.0537C27.1649 21.2723 26.105 20.8333 25 20.8333ZM19.1083 19.1083C19.877 18.3124 20.7966 17.6776 21.8133 17.2408C22.83 16.8041 23.9235 16.5742 25.03 16.5646C26.1365 16.555 27.2338 16.7658 28.2579 17.1848C29.2821 17.6038 30.2125 18.2226 30.9949 19.005C31.7774 19.7875 32.3961 20.7179 32.8152 21.7421C33.2342 22.7662 33.445 23.8635 33.4354 24.97C33.4258 26.0765 33.1959 27.17 32.7592 28.1867C32.3224 29.2034 31.6876 30.1229 30.8916 30.8917C29.32 32.4097 27.2149 33.2496 25.03 33.2306C22.845 33.2116 20.7549 32.3352 19.2098 30.7902C17.6648 29.2451 16.7883 27.155 16.7694 24.97C16.7504 22.785 17.5903 20.68 19.1083 19.1083Z" fill="white"/>
</g>
</g>
</svg>
